{
  "accessors": [
    {
      "bufferView": 2,
      "componentType": 5126,
      "count": 8298,
      "max": [
        16.27720069885254,
        34.662200927734375,
        40.09880065917969
      ],
      "min": [
        -27.6564998626709,
        -19.11910057067871,
        0.05700000002980232
      ],
      "type": "VEC3"
    },
    {
      "bufferView": 2,
      "byteOffset": 99576,
      "componentType": 5126,
      "count": 8298,
      "max": [
        1.0,
        1.0,
        1.0
      ],
      "min": [
        -1.0,
        -1.0,
        -1.0
      ],
      "type": "VEC3"
    },
    {
      "bufferView": 1,
      "componentType": 5126,
      "count": 8298,
      "max": [
        0.9570000171661377,
        0.9882000088691711
      ],
      "min": [
        0.027400000020861626,
        0.013000000268220901
      ],
      "type": "VEC2"
    },
    {
      "bufferView": 0,
      "componentType": 5125,
      "count": 45216,
      "type": "SCALAR"
    },
    {
      "bufferView": 2,
      "byteOffset": 199152,
      "componentType": 5126,
      "count": 2766,
      "max": [
        15.463500022888184,
        -12.676300048828125,
        32.52899932861328
      ],
      "min": [
        -8.390700340270996,
        -39.5786018371582,
        0.23319999873638153
      ],
      "type": "VEC3"
    },
    {
      "bufferView": 2,
      "byteOffset": 232344,
      "componentType": 5126,
      "count": 2766,
      "max": [
        0.9999970197677612,
        0.9999656677246094,
        1.0
      ],
      "min": [
        -0.9999932050704956,
        -0.9999604225158691,
        -1.0
      ],
      "type": "VEC3"
    },
    {
      "bufferView": 1,
      "byteOffset": 66384,
      "componentType": 5126,
      "count": 2766,
      "max": [
        0.9570000171661377,
        0.9882000088691711
      ],
      "min": [
        0.027400000020861626,
        0.013000000268220901
      ],
      "type": "VEC2"
    },
    {
      "bufferView": 0,
      "byteOffset": 180864,
      "componentType": 5125,
      "count": 15072,
      "type": "SCALAR"
    }
  ],
  "asset": {
    "extras": {
      "author": "Alexandre_Gomes (https://sketchfab.com/Alexandre_Gomes)",
      "license": "CC-BY-4.0 (http://creativecommons.org/licenses/by/4.0/)",
      "source": "https://sketchfab.com/3d-models/cardboard-boxes-3e679f329a314583ab0cbb7caf33c163",
      "title": "Cardboard boxes"
    },
    "generator": "Sketchfab-12.66.0",
    "version": "2.0"
  },
  "bufferViews": [
    {
      "buffer": 0,
      "byteLength": 241152,
      "name": "floatBufferViews",
      "target": 34963
    },
    {
      "buffer": 0,
      "byteLength": 88512,
      "byteOffset": 241152,
      "byteStride": 8,
      "name": "floatBufferViews",
      "target": 34962
    },
    {
      "buffer": 0,
      "byteLength": 265536,
      "byteOffset": 329664,
      "byteStride": 12,
      "name": "floatBufferViews",
      "target": 34962
    }
  ],
  "buffers": [
    {
      "byteLength": 595200,
      "uri": "scene.bin"
    }
  ],
  "extensionsRequired": [
    "KHR_materials_pbrSpecularGlossiness"
  ],
  "extensionsUsed": [
    "KHR_materials_pbrSpecularGlossiness"
  ],
  "images": [
    {
      "uri": "textures/Material__25_diffuse.jpeg"
    }
  ],
  "materials": [
    {
      "doubleSided": true,
      "extensions": {
        "KHR_materials_pbrSpecularGlossiness": {
          "diffuseFactor": [
            0.6181342166924627,
            0.6181342166924627,
            0.6181342166924627,
            1.0
          ],
          "diffuseTexture": {
            "index": 0
          },
          "glossinessFactor": 0.4,
          "specularFactor": [
            0.0,
            0.0,
            0.0
          ]
        }
      },
      "name": "Material__25"
    }
  ],
  "meshes": [
    {
      "name": "Object_0",
      "primitives": [
        {
          "attributes": {
            "NORMAL": 1,
            "POSITION": 0,
            "TEXCOORD_0": 2
          },
          "indices": 3,
          "material": 0,
          "mode": 4
        }
      ]
    },
    {
      "name": "Object_1",
      "primitives": [
        {
          "attributes": {
            "NORMAL": 5,
            "POSITION": 4,
            "TEXCOORD_0": 6
          },
          "indices": 7,
          "material": 0,
          "mode": 4
        }
      ]
    }
  ],
  "nodes": [
    {
      "children": [
        1
      ],
      "matrix": [
        0.011694137006998062,
        0.0,
        0.0,
        0.0,
        0.0,
        2.5966200316580728e-18,
        -0.011694137006998062,
        0.0,
        0.0,
        0.011694137006998062,
        2.5966200316580728e-18,
        0.0,
        0.0,
        0.0,
        0.0,
        1.0
      ],
      "name": "Sketchfab_model"
    },
    {
      "children": [
        2,
        3
      ],
      "name": "Carton.obj.cleaner.materialmerger.gles"
    },
    {
      "mesh": 0,
      "name": "Object_2"
    },
    {
      "mesh": 1,
      "name": "Object_3"
    }
  ],
  "samplers": [
    {
      "magFilter": 9729,
      "minFilter": 9987,
      "wrapS": 10497,
      "wrapT": 10497
    }
  ],
  "scene": 0,
  "scenes": [
    {
      "name": "Sketchfab_Scene",
      "nodes": [
        0
      ]
    }
  ],
  "textures": [
    {
      "sampler": 0,
      "source": 0
    }
  ]
}
